<?xml version="1.0" encoding="utf-8"?>
<!-- Generator: Adobe Illustrator 16.0.0, SVG Export Plug-In . SVG Version: 6.00 Build 0)  -->
<!DOCTYPE svg PUBLIC "-//W3C//DTD SVG 1.1//EN" "http://www.w3.org/Graphics/SVG/1.1/DTD/svg11.dtd">
<svg version="1.1" id="Layer_1" xmlns="http://www.w3.org/2000/svg" xmlns:xlink="http://www.w3.org/1999/xlink" x="0px" y="0px"
	 width="800px" height="334.77px" viewBox="0 0 800 334.77" enable-background="new 0 0 800 334.77" xml:space="preserve">
<path fill="#FFFFFF" d="M148.063,65.999c-68.265,0-123.805,55.538-123.805,123.807c0,68.267,55.54,123.812,123.805,123.812h516.039
	c68.259,0,123.802-55.545,123.802-123.812c0-68.27-55.543-123.807-123.802-123.807H148.063z"/>
<path fill="#C7C8CA" d="M664.102,324.164H148.063c-74.08,0-134.349-60.276-134.349-134.358c0-74.08,60.269-134.352,134.349-134.352
	h516.039c74.08,0,134.349,60.272,134.349,134.352C798.45,263.888,738.182,324.164,664.102,324.164 M148.063,65.999
	c-68.265,0-123.805,55.538-123.805,123.807c0,68.267,55.54,123.812,123.805,123.812h516.039
	c68.259,0,123.802-55.545,123.802-123.812c0-68.27-55.543-123.807-123.802-123.807H148.063z"/>
<path d="M602.2,114.622c-20.032,0-36.276,16.246-36.276,36.29c0,20.032,16.244,36.267,36.276,36.267
	c20.044,0,36.278-16.234,36.278-36.267C638.479,130.868,622.244,114.622,602.2,114.622 M602.2,169.517
	c-10.278,0-18.617-8.327-18.617-18.606c0-10.29,8.339-18.62,18.617-18.62c10.276,0,18.62,8.33,18.62,18.62
	C620.82,161.19,612.477,169.517,602.2,169.517"/>
<path d="M435.811,114.622c-20.032,0-36.275,16.246-36.275,36.29c0,20.032,16.243,36.267,36.275,36.267
	c20.044,0,36.29-16.234,36.29-36.267C472.101,130.868,455.854,114.622,435.811,114.622 M435.811,169.517
	c-10.266,0-18.605-8.327-18.605-18.606c0-10.29,8.34-18.62,18.605-18.62c10.29,0,18.619,8.33,18.619,18.62
	C454.43,161.19,446.101,169.517,435.811,169.517"/>
<path d="M563.586,170.531c-2.294,0.667-5.804,1.325-7.14,1.325c-6.2,0-7.549-2.137-7.549-8.071v-33.518h14.832v-14.006h-14.832
	v-19.8h-16.69l-3.507,19.8h-11.626v0.01h-0.946c-9.51,0.045-16.681,5.846-21.279,14.931l-5.803-14.94h-11.969v69.614h20.454v-30.289
	c0-15.266,9.021-25.02,19.71-25.319h11.189v34.608c0,16.29,8.352,22.348,21.948,22.348c7.016,0,12.394-1.481,15.622-2.552
	L563.586,170.531z"/>
<polyline points="663.264,138.284 663.264,185.874 643.377,185.874 643.377,116.259 655.447,116.259 659.49,126.893 "/>
<path d="M659.402,126.959c6.045-7.015,14.317-12.327,24.007-12.327c16.567,0,23.383,13.208,23.383,25.456v45.787h-20.478v-45.198
	c0-5.967-4.967-9.207-10.355-9.207c-5.734,0-9.421,3.285-12.66,6.792"/>
<polygon points="319.747,91.061 342.542,91.061 373.841,150.678 373.841,91.061 392.72,91.061 392.72,185.887 372.067,185.887 
	338.633,120.336 338.633,185.887 319.747,185.887 "/>
<polygon fill="#A7A9AC" points="767.199,55.457 767.199,58.852 762.233,58.852 762.233,75.554 758.356,75.554 758.356,58.852 
	753.481,58.852 753.481,55.457 "/>
<polygon fill="#A7A9AC" points="769.982,75.555 769.982,55.457 775.228,55.457 778.712,68.619 782.253,55.457 787.556,55.457 
	787.556,75.555 784.356,75.555 784.356,59.832 784.269,59.832 780.206,75.555 777.365,75.555 773.267,59.832 773.179,59.832 
	773.179,75.555 "/>
<path fill="#A7A9AC" d="M314.058,269.918l4.731-7.359c3.843,2.84,9.611,5.477,16.646,5.477c6.837,0,11.058-3.096,11.058-8.475
	c0-6.188-5.334-7.828-14.098-10.878c-7.859-2.76-15.587-6.724-15.587-17.858c0-10.433,8.228-16.115,19.296-16.115
	c7.359,0,12.78,1.448,17.148,4.021l-3.786,7.828c-3.665-1.904-8.042-3.195-13.185-3.195c-6.167,0-9.865,2.325-9.865,7.218
	c0,5.744,4.287,7.203,12.348,9.853c8.407,2.727,17.661,6.616,17.661,18.95c0,10.437-7.459,17.316-20.845,17.316
	C325.648,276.699,318.353,273.271,314.058,269.918"/>
<polygon fill="#A7A9AC" points="374.375,215.657 410.212,215.657 410.212,223.986 384.574,223.986 384.574,240.433 404.821,240.433 
	404.821,248.582 384.574,248.582 384.574,267.592 411.77,267.592 411.77,275.909 374.375,275.909 "/>
<path fill="#A7A9AC" d="M426.356,245.834c0-17.582,8.419-31.111,25.221-31.111c7.526,0,13.474,2.382,17.661,7.261l-5.946,6.881
	c-3.598-3.521-6.647-5.246-11.547-5.246c-9.865,0-14.419,8.072-14.419,22.983c0,13.997,4.808,21.089,14.508,21.089
	c5.389,0,9.174-2.827,12.493-6.347l6.003,6.691c-4.366,5.157-9.833,8.664-18.585,8.664
	C434.417,276.699,426.356,263.492,426.356,245.834"/>
<path fill="#A7A9AC" d="M486.941,252.849v-37.191h10.278v38.852c0,8.282,2.05,13.705,10.792,13.705
	c8.662,0,10.811-5.423,10.811-13.705v-38.852h10.377v37.191c0,14.931-5.745,23.851-21.267,23.851
	C492.666,276.699,486.941,267.779,486.941,252.849"/>
<path fill="#A7A9AC" d="M592.08,275.919h-11.146l-11.569-25.555h-9.521v25.555h-10.2v-60.261h19.654
	c12.168,0,21.669,4.365,21.669,17.569c0,9.011-5.4,13.529-11.413,15.681L592.08,275.919z M568.929,242.492
	c7.639,0,11.57-2.484,11.57-9.442c0-6.69-4.009-9.075-10.97-9.075h-9.686v18.518H568.929z"/>
<polygon fill="#A7A9AC" points="609.526,215.657 645.36,215.657 645.36,223.986 619.716,223.986 619.716,240.433 639.938,240.433 
	639.938,248.582 619.716,248.582 619.716,267.592 646.897,267.592 646.897,275.909 609.526,275.909 "/>
<path fill="#A7A9AC" d="M664.123,215.657h15.043c19.643,0,29.083,10.633,29.083,29.909c0,19.64-9.608,30.353-28.562,30.353h-15.564
	V215.657z M678.574,267.592c14.066,0,18.877-6.492,18.877-22.025c0-13.628-3.776-21.592-17.607-21.592h-5.477v43.617H678.574z"/>
<path fill="#FFC20E" d="M147.445,334.77c-79.927,0-144.968-65.04-144.968-144.964c0-79.926,65.041-144.956,144.968-144.956
	c79.917,0,144.942,65.029,144.955,144.956C292.387,269.729,227.362,334.77,147.445,334.77 M147.445,90.704
	c-26.458,0-51.346,10.313-70.084,29.029c-18.719,18.727-29.028,43.615-29.028,70.072c0,26.452,10.309,51.341,29.028,70.082
	c18.727,18.702,43.614,29.016,70.084,29.025c26.455-0.01,51.343-10.323,70.083-29.038c18.695-18.729,29.006-43.617,29.017-70.069
	c-0.011-26.457-10.322-51.345-29.027-70.082C198.777,101.017,173.89,90.704,147.445,90.704"/>
<rect x="305.35" y="22.524" fill="#FFC20E" width="11.301" height="11.304"/>
<rect x="305.35" fill="#FFC20E" width="11.301" height="11.326"/>
<rect x="273.549" y="33.747" fill="#FFC20E" width="10.556" height="11.035"/>
<rect x="252.624" y="55.418" width="10.646" height="10.554"/>
<rect x="284.102" y="44.785" width="11.836" height="10.633"/>
<rect x="242.024" y="45.307" width="10.6" height="10.112"/>
<rect x="273.549" y="55.418" width="10.556" height="10.554"/>
<rect x="294.169" y="11.323" width="11.181" height="11.201"/>
<rect x="273.549" y="22.524" width="20.62" height="11.223"/>
<rect x="263.27" y="33.749" width="10.276" height="21.669"/>
<path d="M263.271,65.973v10.636h-10.646V65.973h-17.66v7.663H225.5v9.452h10.567v10.535H225.5V83.087h-11.235v16.525h-10.623v10.545
	h-7.048v10.59h-7.752c-8.706,12.95-30.531,53.315-37.121,69.749c-23.785-33.093-42.248-46.209-56.79-50.953
	c-7.839-2.362-17.292,6.18-4.266,19.62c29.92,32.903,39.341,60.146,48.437,81.883c4.812,11.458,26.38,13.24,30.711,1.569
	c9.209-24.664,22.561-52.375,38.373-75.136v-11.792h8.441v-10.635h8.873v-12.326h10.6v-11.881h-10.721v-10.8H236.1v10.8h10.489
	l-0.02-10.689h8.406V97.253h9.464v-8.877h9.108V65.973H263.271z"/>
</svg>
